HIERARCHY
ROOT Hips
{
	OFFSET 0.00000 0.00000 0.00000
	CHANNELS 6 Xposition Yposition Zposition Zrotation Yrotation Xrotation 
	JOINT LHipJoint
	{
		OFFSET 0 0 0
		CHANNELS 3 Zrotation Yrotation Xrotation
		JOINT LeftHip
		{
			OFFSET 1.53139 -1.83434 0.76626
			CHANNELS 3 Zrotation Yrotation Xrotation
			JOINT LeftKnee
			{
				OFFSET 2.56112 -7.03663 0.00000
				CHANNELS 3 Zrotation Yrotation Xrotation
				JOINT LeftAnkle
				{
					OFFSET 2.59983 -7.14299 0.00000
					CHANNELS 3 Zrotation Yrotation Xrotation
					JOINT LeftToe
					{
						OFFSET 0.13742 -0.37757 2.00054
						CHANNELS 3 Zrotation Yrotation Xrotation
						End Site
						{
							OFFSET 0.00000 -0.00000 1.02897
						}
					}
				}
			}
		}
	}
	JOINT RHipJoint
	{
		OFFSET 0 0 0
		CHANNELS 3 Zrotation Yrotation Xrotation
		JOINT RightHip
		{
			OFFSET -1.40122 -1.83435 0.76627
			CHANNELS 3 Zrotation Yrotation Xrotation
			JOINT RightKnee
			{
				OFFSET -2.54052 -6.98003 0.00000
				CHANNELS 3 Zrotation Yrotation Xrotation
				JOINT RightAnkle
				{
					OFFSET -2.63179 -7.23079 0.00000
					CHANNELS 3 Zrotation Yrotation Xrotation
					JOINT RightToe
					{
						OFFSET -0.24131 -0.66299 2.03908
						CHANNELS 3 Zrotation Yrotation Xrotation
						End Site
						{
							OFFSET -0.00000 -0.00000 1.07391
						}
					}
				}
			}
		}
	}
	JOINT lowerback
	{
		OFFSET 0 0 0
		CHANNELS 3 Zrotation Yrotation Xrotation
		JOINT Chest
		{
			OFFSET 0.01174 2.10302 -0.29778
			CHANNELS 3 Zrotation Yrotation Xrotation
			JOINT Chest2
			{
				OFFSET 0.00772 2.13227 -0.01247
				CHANNELS 3 Zrotation Yrotation Xrotation
				JOINT lowerneck
				{
					OFFSET 0 0 0
					CHANNELS 3 Zrotation Yrotation Xrotation
					JOINT Neck
					{
						OFFSET -0.09219 1.60848 0.31481
						CHANNELS 3 Zrotation Yrotation Xrotation
						JOINT Head
						{
							OFFSET 0.13974 1.65456 -0.31134
							CHANNELS 3 Zrotation Yrotation Xrotation
							End Site
							{
								OFFSET 0.04742 1.69515 -0.14578
							}
						}
					}
				}
				JOINT LeftCollar
				{
					OFFSET 0 0 0
					CHANNELS 3 Zrotation Yrotation Xrotation
					JOINT LeftShoulder
					{
						OFFSET 3.24909 1.02882 -0.23993
CHANNELS 3 Zrotation Xrotation Yrotation
						JOINT LeftElbow
						{
OFFSET 0 -5.329550 -0.000000
CHANNELS 3 Zrotation Xrotation Yrotation
							JOINT LeftWrist
							{
OFFSET 0 -3.692320 -0.000000
CHANNELS 3 Zrotation Xrotation Yrotation
								JOINT lhand
								{
									OFFSET 0 0 0
CHANNELS 3 Zrotation Xrotation Yrotation
									JOINT LFingers
									{
OFFSET 0 -0.536600 -0.000000
CHANNELS 3 Zrotation Xrotation Yrotation
										End Site
										{
OFFSET 0 -0.432620 -0.000000
										}
									}
								}
								JOINT LThumb
								{
OFFSET 0 0.000000 0.000000
CHANNELS 3 Zrotation Xrotation Yrotation
									End Site
									{
OFFSET 0 -0.439220 0.439220
									}
								}
							}
						}
					}
				}
				JOINT RightCollar
				{
					OFFSET 0 0 0
					CHANNELS 3 Zrotation Yrotation Xrotation
					JOINT RightShoulder
					{
						OFFSET -3.21387 0.93002 -0.34594
CHANNELS 3 Zrotation Xrotation Yrotation
						JOINT RightElbow
						{
OFFSET 0 -5.234310 0.000000
CHANNELS 3 Zrotation Xrotation Yrotation
							JOINT RightWrist
							{
OFFSET 0 -3.553010 -0.000000
CHANNELS 3 Zrotation Xrotation Yrotation
								JOINT rhand
								{
									OFFSET 0 0 0
CHANNELS 3 Zrotation Xrotation Yrotation
									JOINT RFingers
									{
OFFSET 0 -0.772520 -0.000000
CHANNELS 3 Zrotation Xrotation Yrotation
										End Site
										{
OFFSET 0 -0.622830 -0.000000
										}
									}
								}
								JOINT RThumb
								{
OFFSET 0 0.000000 0.000000
CHANNELS 3 Zrotation Xrotation Yrotation
									End Site
									{
OFFSET 0 -0.632340 0.632340
									}
								}
							}
						}
					}
				}
			}
		}
	}
}
MOTION
Frames: 5
Frame Time: 0.008333333333333333
12.242239 17.892523 11.052607 8.154144 -66.914499 -5.587407 0.000000 0.000000 0.000000 -13.652235 -13.725989 -16.564271 4.100035 12.291986 36.773461 0.182007 -3.745467 -7.632415 1.450401 -7.612625 -21.543668 0.000000 0.000000 0.000000 29.759291 2.737992 -0.701695 -1.454719 -7.623582 21.576383 0.347528 17.232304 -8.410074 -2.064673 -8.999495 25.793784 1.115557 1.774490 9.742748 -0.481836 2.456140 -0.410406 -1.488552 1.163777 -5.828471 -13.143271 -7.710427 -18.789764 9.680788 -10.155845 27.053373 4.196944 -4.701427 13.478115 0.000000 0.000000 0.000000 3.759568 7.893806 -22.083408 14.395750 -23.297618 2.982875 18.341972 17.610870 -25.453115 0.000000 0.000000 0.000000 -7.125000 0.000000 0.000000 -12.373771 56.181043 3.430226 0.000000 0.000000 0.000000 0.494882 -0.904664 32.788604 -24.755684 -35.953258 -8.146059 -15.622217 -2.023811 -9.902856 0.000000 0.000000 0.000000 7.125000 0.000000 0.000000 8.089275 19.756321 4.927773
12.195248 17.893600 11.112469 8.339617 -68.092059 -5.660777 0.000000 0.000000 0.000000 -13.528762 -13.849278 -16.870385 3.856134 11.965628 35.611618 0.180520 -3.207028 -7.561322 1.525526 -7.798354 -22.103552 0.000000 0.000000 0.000000 29.735204 2.789021 -0.271137 -1.404359 -7.495943 21.193339 0.343401 17.224041 -8.451063 -2.016918 -8.901147 25.486583 1.199105 1.728129 9.817537 -0.478610 2.405419 -0.452733 -1.528612 1.135075 -5.913605 -13.899353 -8.028243 -18.882144 10.183418 -10.541071 27.127607 4.451183 -4.884367 13.674095 0.000000 0.000000 0.000000 3.958775 7.829412 -21.760334 14.552802 -23.519461 3.045299 18.729871 17.894344 -25.527487 0.000000 0.000000 0.000000 -7.125000 0.000000 0.000000 -12.007265 56.335363 3.371561 0.000000 0.000000 0.000000 0.574525 -0.965229 32.439374 -24.612736 -35.805467 -8.062265 -15.697068 -2.033799 -9.952049 0.000000 0.000000 0.000000 7.125000 0.000000 0.000000 8.035339 19.701532 4.904103
12.147214 17.893450 11.170633 8.471363 -69.208986 -5.703572 0.000000 0.000000 0.000000 -13.381062 -14.043856 -17.104633 3.618487 11.633449 34.448763 0.179317 -2.568777 -7.526076 1.548112 -7.853455 -22.269999 0.000000 0.000000 0.000000 29.670621 2.651498 0.113904 -1.353665 -7.364889 20.801084 0.377905 17.461321 -8.275843 -2.095722 -9.062193 25.990388 1.336774 1.710254 9.870785 -0.492395 2.396801 -0.421712 -1.620421 1.126402 -5.905089 -14.150294 -8.148388 -18.950330 10.380469 -10.684749 27.061141 4.541163 -4.946086 13.714427 0.000000 0.000000 0.000000 4.213922 7.616852 -21.346342 14.750839 -23.797732 3.124792 18.601923 17.968636 -25.525453 0.000000 0.000000 0.000000 -7.125000 0.000000 0.000000 -12.139626 56.306782 3.401188 0.000000 0.000000 0.000000 0.600744 -1.051640 31.892003 -24.497467 -35.685835 -7.994953 -15.571178 -2.234200 -10.473228 0.000000 0.000000 0.000000 7.125000 0.000000 0.000000 8.116321 19.174857 5.051050
12.095995 17.895852 11.225980 8.424988 -70.162206 -5.568992 0.000000 0.000000 0.000000 -13.166362 -14.287631 -17.361856 3.389358 11.298577 33.295497 0.175422 -1.986957 -7.473964 1.720860 -8.255216 -23.493991 0.000000 0.000000 0.000000 29.676974 2.500755 0.494364 -1.300999 -7.225692 20.385899 0.416317 17.654439 -8.012086 -2.137404 -9.146615 26.255017 1.497058 1.682643 9.874153 -0.450986 2.379955 -0.352148 -1.663111 1.115032 -5.829647 -14.107702 -8.142075 -18.995969 10.253729 -10.617538 26.886838 4.489233 -4.923849 13.627879 0.000000 0.000000 0.000000 4.436454 7.326890 -21.023209 14.967505 -24.100599 3.212733 18.228079 17.807376 -25.603040 0.000000 0.000000 0.000000 -7.125000 0.000000 0.000000 -12.567637 56.306919 3.523878 0.000000 0.000000 0.000000 0.438224 -1.081240 31.491995 -24.497193 -35.685636 -7.994718 -15.532086 -2.597362 -10.648583 0.000000 0.000000 0.000000 7.125000 0.000000 0.000000 8.141339 18.997444 5.099214
12.042779 17.899258 11.283908 8.371613 -71.049230 -5.482781 0.000000 0.000000 0.000000 -13.004035 -14.416793 -17.612738 3.173614 10.969216 32.178014 0.163458 -1.357979 -7.285205 1.868601 -8.585480 -24.507857 0.000000 0.000000 0.000000 29.672417 2.370746 0.988275 -1.243771 -7.070926 19.925984 0.477243 17.893680 -7.523320 -2.178926 -9.229122 26.514668 1.688143 1.619110 9.916608 -0.408611 2.319460 -0.282736 -1.717247 1.080982 -5.776992 -14.183239 -8.094819 -18.964400 10.228994 -10.496368 26.705505 4.511220 -4.880784 13.529511 0.000000 0.000000 0.000000 4.617239 7.051363 -20.648634 15.139456 -24.339964 3.283295 18.198407 17.800048 -25.646326 0.000000 0.000000 0.000000 -7.125000 0.000000 0.000000 -12.620548 56.343906 3.550356 0.000000 0.000000 0.000000 0.257353 -1.036155 31.125847 -24.510755 -35.699734 -8.002677 -15.574327 -2.723250 -10.518739 0.000000 0.000000 0.000000 7.125000 0.000000 0.000000 8.113342 19.127871 5.057584
